<svg width="623" height="738" viewBox="0 0 623 738" fill="none" xmlns="http://www.w3.org/2000/svg">
<g filter="url(#filter0_d)">
<path d="M72 107.325C72 92.699 82.5473 80.2047 96.966 77.7505L302.059 42.841C305.33 42.2842 308.671 42.274 311.946 42.8108L525.853 77.8776C540.355 80.2549 551 92.7871 551 107.482V630.049C551 644.949 540.064 657.591 525.319 659.736L311.402 690.86C308.483 691.284 305.518 691.276 302.602 690.836L97.5189 659.855C82.8473 657.639 72 645.03 72 630.192V107.325Z" fill="white"/>
<path d="M72.5 107.325C72.5 92.9428 82.8715 80.6567 97.0499 78.2434L302.143 43.3339C305.36 42.7864 308.645 42.7764 311.865 43.3043L525.772 78.371C540.032 80.7087 550.5 93.032 550.5 107.482V630.049C550.5 644.701 539.746 657.132 525.247 659.242L311.33 690.365C308.46 690.782 305.544 690.774 302.676 690.341L97.5936 659.361C83.1666 657.181 72.5 644.782 72.5 630.192V107.325Z" stroke="#BFBFBF"/>
</g>
<defs>
<filter id="filter0_d" x="0" y="-1.58435" width="623" height="792.756" filterUnits="userSpaceOnUse" color-interpolation-filters="sRGB">
<feFlood flood-opacity="0" result="BackgroundImageFix"/>
<feColorMatrix in="SourceAlpha" type="matrix" values="0 0 0 0 0 0 0 0 0 0 0 0 0 0 0 0 0 0 127 0" result="hardAlpha"/>
<feOffset dy="28"/>
<feGaussianBlur stdDeviation="36"/>
<feComposite in2="hardAlpha" operator="out"/>
<feColorMatrix type="matrix" values="0 0 0 0 0 0 0 0 0 0 0 0 0 0 0 0 0 0 0.21 0"/>
<feBlend mode="normal" in2="BackgroundImageFix" result="effect1_dropShadow"/>
<feBlend mode="normal" in="SourceGraphic" in2="effect1_dropShadow" result="shape"/>
</filter>
</defs>
</svg>
