<svg width="37" height="37" viewBox="0 0 37 37" fill="none" xmlns="http://www.w3.org/2000/svg">
<circle cx="18.5" cy="18.5" r="18.5" fill="#EFEAFF"/>
<path d="M12.0417 22.9007C12.17 22.9006 12.2969 22.872 12.4141 22.8166C12.4413 22.8037 12.4673 22.7881 12.4917 22.7698L14.861 21.001C14.9811 20.9112 15.0792 20.7922 15.1469 20.6539C15.2146 20.5156 15.25 20.362 15.25 20.2062V17.7938C15.25 17.638 15.2146 17.4844 15.1469 17.3461C15.0792 17.2078 14.9811 17.0888 14.861 16.999L12.4917 15.2302C12.4673 15.2119 12.4413 15.1963 12.4141 15.1834C12.2745 15.1176 12.1216 15.0898 11.9694 15.1026C11.8171 15.1154 11.6703 15.1683 11.5422 15.2566C11.4141 15.3448 11.3089 15.4656 11.236 15.608C11.1632 15.7504 11.125 15.9098 11.125 16.0718V21.9282C11.125 22.1861 11.2216 22.4333 11.3935 22.6157C11.5654 22.798 11.7986 22.9004 12.0417 22.9004V22.9007ZM17.6562 23.375H22.9271C23.4435 23.3744 23.9387 23.1566 24.3039 22.7693C24.6691 22.3819 24.8745 21.8568 24.875 21.309V16.691C24.8745 16.1432 24.6691 15.6181 24.3039 15.2307C23.9387 14.8434 23.4435 14.6256 22.9271 14.625H17.6425C17.1297 14.6256 16.6381 14.842 16.2755 15.2265C15.9129 15.6111 15.7089 16.1325 15.7083 16.6764V21.309C15.7089 21.8568 15.9143 22.3819 16.2795 22.7693C16.6446 23.1566 17.1398 23.3744 17.6562 23.375Z" fill="#7F5EDE"/>
</svg>
