<svg width="79" height="67" viewBox="0 0 79 67" fill="none" xmlns="http://www.w3.org/2000/svg">
<g clip-path="url(#clip0)">
<g opacity="0.2">
<path opacity="0.2" d="M39.8326 67.0001C49.8131 67.0001 57.9039 65.2551 57.9039 63.1026C57.9039 60.95 49.8131 59.2051 39.8326 59.2051C29.852 59.2051 21.7612 60.95 21.7612 63.1026C21.7612 65.2551 29.852 67.0001 39.8326 67.0001Z" fill="#650000"/>
</g>
<path d="M73.7883 2.79101C73.7883 2.96765 73.3239 3.12047 72.6463 3.19502C72.5007 3.21071 72.3646 3.28257 72.2612 3.39827C72.1578 3.51397 72.0936 3.66632 72.0796 3.82919C72.0132 4.5871 71.8764 5.10712 71.7185 5.10712C71.5607 5.10712 71.4233 4.5871 71.3567 3.82888C71.3426 3.66608 71.2784 3.5138 71.1751 3.39812C71.0718 3.28243 70.9357 3.21053 70.7902 3.19471C70.1129 3.12016 69.6479 2.96672 69.6479 2.79256C69.6479 2.6184 70.1129 2.46217 70.7902 2.38762C70.9357 2.37181 71.0718 2.29991 71.1751 2.18422C71.2784 2.06854 71.3426 1.91626 71.3567 1.75345C71.4233 0.995236 71.5607 0.47522 71.7185 0.47522C71.8764 0.47522 72.0129 0.995236 72.0796 1.75345C72.0936 1.91626 72.1578 2.06854 72.2612 2.18422C72.3645 2.29991 72.5005 2.37181 72.646 2.38762C73.3236 2.46063 73.7883 2.61407 73.7883 2.79101Z" fill="white"/>
<path d="M75.932 16.0092C75.932 16.1329 75.608 16.239 75.1353 16.291C75.0337 16.302 74.9388 16.3521 74.8667 16.4328C74.7945 16.5135 74.7497 16.6198 74.7399 16.7334C74.6935 17.262 74.5984 17.6246 74.4881 17.6246C74.3778 17.6246 74.2822 17.262 74.2357 16.7331C74.2259 16.6195 74.1811 16.5133 74.109 16.4326C74.037 16.3519 73.9421 16.3018 73.8407 16.2907C73.3682 16.2387 73.0439 16.1317 73.0439 16.0092C73.0439 15.8867 73.3682 15.7787 73.8407 15.7267C73.9421 15.7157 74.037 15.6656 74.1091 15.5849C74.1812 15.5042 74.2259 15.3979 74.2357 15.2844C74.2822 14.7557 74.3781 14.3928 74.4881 14.3928C74.5981 14.3928 74.6935 14.7557 74.7399 15.2844C74.7498 15.3979 74.7946 15.5041 74.8666 15.5848C74.9387 15.6655 75.0335 15.7157 75.135 15.7267C75.6077 15.7787 75.932 15.8857 75.932 16.0092Z" fill="white"/>
<path d="M78.8304 8.24311C79.0569 7.98965 79.0569 7.57872 78.8304 7.32526C78.6039 7.0718 78.2367 7.0718 78.0102 7.32526C77.7837 7.57871 77.7837 7.98965 78.0102 8.24311C78.2367 8.49656 78.6039 8.49656 78.8304 8.24311Z" fill="white"/>
<path d="M4.67676 3.30813C4.67676 3.4826 5.14119 3.63356 5.81876 3.70688C5.96341 3.72151 6.09902 3.79192 6.2024 3.90608C6.30578 4.02024 6.37049 4.17104 6.38548 4.3327C6.45182 5.08101 6.58867 5.59392 6.74652 5.59392C6.90437 5.59392 7.04176 5.0807 7.10839 4.33239C7.12332 4.17079 7.18799 4.02003 7.29133 3.90592C7.39466 3.79181 7.53023 3.72145 7.67483 3.70688C8.35212 3.63326 8.81711 3.48167 8.81711 3.30813C8.81711 3.13458 8.35212 2.98207 7.67483 2.90845C7.53036 2.89392 7.39489 2.82369 7.29157 2.70977C7.18825 2.59584 7.1235 2.4453 7.10839 2.28387C7.04176 1.53555 6.90437 1.02234 6.74652 1.02234C6.58867 1.02234 6.4521 1.53555 6.38548 2.28387C6.37054 2.44547 6.30587 2.59623 6.20254 2.71034C6.0992 2.82445 5.96363 2.89481 5.81904 2.90938C5.14119 2.98207 4.67676 3.13365 4.67676 3.30813Z" fill="white"/>
<path d="M1.73975 13.2428C1.73975 13.3665 2.06374 13.4729 2.53647 13.5246C2.63795 13.5356 2.73286 13.5858 2.80496 13.6665C2.87706 13.7472 2.92189 13.8534 2.93179 13.9669C2.97795 14.4959 3.07333 14.8585 3.18363 14.8585C3.29393 14.8585 3.38931 14.4956 3.43602 13.9669C3.44581 13.8534 3.49056 13.7472 3.56263 13.6665C3.6347 13.5858 3.72959 13.5356 3.83107 13.5246C4.30352 13.4726 4.62779 13.3656 4.62779 13.2428C4.62779 13.1199 4.30352 13.0126 3.83107 12.9603C3.72962 12.9494 3.63472 12.8993 3.56265 12.8186C3.49058 12.738 3.44582 12.6318 3.43602 12.5183C3.38931 11.9893 3.29365 11.6267 3.18363 11.6267C3.0736 11.6267 2.97823 11.9893 2.93179 12.5183C2.92193 12.6318 2.87711 12.738 2.80499 12.8186C2.73288 12.8993 2.63795 12.9494 2.53647 12.9603C2.06402 13.0126 1.73975 13.1196 1.73975 13.2428Z" fill="white"/>
<path d="M0.579986 6.95697C0.900303 6.95697 1.15997 6.66639 1.15997 6.30795C1.15997 5.94951 0.900303 5.65894 0.579986 5.65894C0.259669 5.65894 0 5.94951 0 6.30795C0 6.66639 0.259669 6.95697 0.579986 6.95697Z" fill="white"/>
<path d="M57.6082 4.25297L50.1524 7.89867L49.5926 8.17244H29.7976L22.0571 4.25297L22.2479 4.17254L28.2606 1.62195L30.8108 0.540771H48.5781L57.6082 4.25297Z" fill="#FF2110"/>
<path d="M49.6069 8.24972L29.769 8.24261L21.8765 4.24642L22.2234 4.1001L30.798 0.463379L48.6012 0.46802L57.7927 4.24673L49.6069 8.24972ZM29.8133 8.09505H49.5792L57.424 4.2591L48.5669 0.618054H30.8245L22.2386 4.25941L29.8133 8.09505Z" fill="#650000"/>
<path d="M29.7974 8.17239L25.4572 19.9787L10.5747 12.658L22.0569 4.25293L29.7974 8.17239Z" fill="#FF2110"/>
<path d="M25.4943 20.0815L10.4302 12.6713L22.0509 4.16418L29.8868 8.1316L25.4943 20.0815ZM10.7193 12.6444L25.4202 19.8761L29.7082 8.21358L22.0631 4.34237L10.7193 12.6444Z" fill="#650000"/>
<path d="M69.0901 12.658L67.2849 13.5303L65.8335 14.231L53.9311 19.9787L49.5923 8.17239L57.5609 4.27613L57.6079 4.25293L58.2575 4.72778L69.0901 12.658Z" fill="#FF2110"/>
<path d="M53.894 20.0809L49.5029 8.13068L49.5649 8.09975L57.6144 4.16357L69.2357 12.6707L53.894 20.0809ZM49.6821 8.21297L53.9684 19.8755L68.9449 12.6426L57.6017 4.33928L57.589 4.34578L49.6821 8.21297Z" fill="#650000"/>
<g opacity="0.6">
<path opacity="0.6" d="M50.6981 7.68362L55.0231 19.4513L53.9311 19.9787L49.5923 8.17239L57.5609 4.27613L57.6079 4.25293L57.6507 4.28386L50.6981 7.68362Z" fill="white"/>
</g>
<path d="M25.4572 19.9787V25.3924L10.5747 17.7359V12.658L25.4572 19.9787Z" fill="#FF2110"/>
<path d="M25.5266 25.5131L10.5059 17.7855V12.5396L10.6029 12.5872L25.5266 19.9284V25.5131ZM10.6441 17.6865L25.3884 25.2718V20.0292L10.6441 12.7765V17.6865Z" fill="#650000"/>
<g opacity="0.5">
<path opacity="0.5" d="M25.4572 19.9787V25.3924L12.1422 18.5418L10.5747 17.7359V12.658L12.1422 13.4282L25.4572 19.9787Z" fill="white"/>
<path opacity="0.5" d="M25.5266 25.5131L10.5059 17.7855V12.5396L12.1703 13.3587L25.5266 19.9296V25.5131ZM10.6441 17.6865L25.3884 25.2718V20.0292L10.6441 12.7765V17.6865Z" fill="#650000"/>
</g>
<path d="M69.0902 12.658V17.7359L64.0146 20.2989L60.3033 22.1751H60.3019L55.0826 24.8108L53.9312 25.3924V19.9787L55.0826 19.4219L65.8336 14.2295L67.2849 13.5288L69.0902 12.658Z" fill="#FF2110"/>
<path d="M53.8623 25.5121V19.9277L55.0555 19.3526L69.1595 12.5404V17.7861L60.3726 22.2237V22.2509H60.3174L53.8623 25.5121ZM54.0005 20.0295V25.2726L69.0213 17.6858V12.7755L54.0005 20.0295Z" fill="#650000"/>
<path d="M53.9311 19.9788H25.457L29.7972 8.17249H49.5922L53.9311 19.9788Z" fill="#FF2110"/>
<path d="M54.0343 20.0561H25.354L29.7512 8.09509H49.6388L54.0343 20.0561ZM25.5602 19.9014H53.828L49.5462 8.24977H29.8438L25.5602 19.9014Z" fill="#650000"/>
<path d="M53.9311 19.9788H25.457V25.3924H53.9311V19.9788Z" fill="#FF2110"/>
<path d="M54.0005 25.4697H25.3882V19.9014H54.0005V25.4697ZM25.5264 25.315H53.8622V20.056H25.5264V25.315Z" fill="#650000"/>
<g opacity="0.35">
<path opacity="0.35" d="M53.9316 19.9788H25.4575V25.3924H53.9316V19.9788Z" fill="white"/>
<path opacity="0.35" d="M54.0005 25.4697H25.3882V19.9014H54.0005V25.4697ZM25.5264 25.315H53.8622V20.056H25.5264V25.315Z" fill="#650000"/>
</g>
<g opacity="0.35">
<path opacity="0.35" d="M10.8794 12.807L16.7091 15.675L21.8344 4.72742L10.8794 12.807Z" fill="white"/>
<path opacity="0.35" d="M16.7403 15.7749L10.7354 12.8206L10.8415 12.7427L22.0199 4.49817L16.7403 15.7749ZM11.0234 12.7934L16.6779 15.5751L21.6489 4.95694L11.0234 12.7934Z" fill="#650000"/>
</g>
<g opacity="0.6">
<path opacity="0.6" d="M21.8345 4.86328L20.9817 6.68381L11.8492 13.4199L10.8789 12.942L21.8345 4.86328Z" fill="white"/>
</g>
<path d="M69.0903 17.736L40.004 50.1961L39.6943 50.5426L39.9528 50.0863L53.9313 25.3924L60.3021 22.1751H60.3034L64.0147 20.3005L69.0903 17.736Z" fill="#FF2110"/>
<path d="M39.3013 51.0915L39.8942 50.0447L53.8838 25.3304L53.9026 25.3208L69.4077 17.4896L69.139 17.7897L40.0535 50.2507L39.3013 51.0915ZM53.9784 25.4542L40.0861 49.9949L68.7724 17.9812L60.3723 22.2236V22.2508H60.317L53.9784 25.4542Z" fill="#650000"/>
<path d="M69.0902 12.658V17.7359L64.0146 20.2989L60.3033 22.1751H60.3019L55.0826 24.8108L53.9312 25.3924V19.9787L55.0826 19.4219L65.8336 14.2295L67.2849 13.5288L69.0902 12.658Z" fill="#FF2110"/>
<path d="M53.8623 25.5121V19.9277L55.0555 19.3526L69.1595 12.5404V17.7861L60.3726 22.2237V22.2509H60.3174L53.8623 25.5121ZM54.0005 20.0295V25.2726L69.0213 17.6858V12.7755L54.0005 20.0295Z" fill="#650000"/>
<path d="M69.0903 17.736L40.004 50.1961L39.6943 50.5426L39.9528 50.0863L53.9313 25.3924L60.3021 22.1751H60.3034L64.0147 20.3005L69.0903 17.736Z" fill="#FF2110"/>
<path d="M39.3013 51.0915L39.8942 50.0447L53.8838 25.3304L53.9026 25.3208L69.4077 17.4896L69.139 17.7897L40.0535 50.2507L39.3013 51.0915ZM53.9784 25.4542L40.0861 49.9949L68.7724 17.9812L60.3723 22.2236V22.2508H60.317L53.9784 25.4542Z" fill="#650000"/>
<g opacity="0.6">
<path opacity="0.6" d="M55.637 24.5309L43.002 46.849L40.004 50.1961L39.6943 50.5426L39.9528 50.0863L53.9314 25.3924L55.637 24.5309Z" fill="white"/>
</g>
<path d="M53.9311 25.3925L48.0441 35.7928L47.1291 37.4092L46.0178 39.3704L44.1518 42.6666L39.694 50.5426L30.0944 33.584L26.0777 26.4876L25.457 25.3925H53.9311Z" fill="#FF2110"/>
<path d="M39.6944 50.6871L25.3315 25.3152H54.0569L39.6944 50.6871ZM25.5831 25.4699L30.1531 33.5439L39.6944 50.3982L53.8059 25.4699H25.5831Z" fill="#650000"/>
<g opacity="0.2">
<path opacity="0.2" d="M25.457 19.9788C25.5953 19.7211 29.7972 8.4812 29.7972 8.4812L39.6941 19.9788H25.457Z" fill="white"/>
<path opacity="0.2" d="M39.8567 20.0561H25.335L25.398 19.9392C25.5053 19.7387 28.2808 12.3372 29.7335 8.45148L29.7741 8.3429L39.8567 20.0561ZM25.5663 19.9015H39.5316L29.8206 8.61977C29.3863 9.78076 26.0319 18.7485 25.5677 19.9015H25.5663Z" fill="#650000"/>
</g>
<path d="M39.6943 50.5426L10.5747 17.736L25.4572 25.3924L39.6943 50.5426Z" fill="#FF2110"/>
<path d="M40.0918 51.0994L10.2568 17.4869L25.5051 25.3305L25.5159 25.3497L40.0918 51.0994ZM10.8932 17.985L39.2973 49.9857L25.41 25.4543L10.8932 17.985Z" fill="#650000"/>
<g opacity="0.35">
<path opacity="0.35" d="M39.6947 50.5426L10.5752 17.736L25.4577 25.3924L39.6947 50.5426Z" fill="white"/>
<path opacity="0.35" d="M40.0918 51.0994L10.2568 17.4869L25.5051 25.3305L25.5159 25.3497L40.0918 51.0994ZM10.8932 17.985L39.2973 49.9857L25.41 25.4543L10.8932 17.985Z" fill="#650000"/>
</g>
<g opacity="0.6">
<path opacity="0.6" d="M39.6943 50.5426L10.5747 17.736L14.2515 19.6276L36.1765 44.3293L39.6943 50.5426Z" fill="white"/>
</g>
<g opacity="0.6">
<path opacity="0.6" d="M25.9409 3.89254L28.5478 5.25183C28.9211 5.44648 29.237 5.75633 29.4583 6.14497C29.6797 6.53361 29.7973 6.98488 29.7973 7.44574V7.75942L22.2476 4.17096L30.8105 0.539185L25.9409 3.89254Z" fill="white"/>
</g>
<g opacity="0.3">
<path opacity="0.3" d="M53.7535 3.89254L51.2932 5.1748C50.8757 5.39246 50.5224 5.73897 50.2749 6.1736C50.0274 6.60822 49.896 7.11289 49.896 7.62826V7.75942L57.4457 4.17096L48.8828 0.539185L53.7535 3.89254Z" fill="#650000"/>
</g>
<g opacity="0.25">
<path opacity="0.25" d="M44.5472 7.96602H38.8814L28.7441 1.41553L31.2944 0.334351H32.7347L44.5472 7.96602Z" fill="white"/>
</g>
<g opacity="0.25">
<path opacity="0.25" d="M49.591 7.64191L49.8757 7.89867L49.3159 8.17244H47.6738L35.8599 0.540771L38.7819 0.658325L49.591 7.64191Z" fill="white"/>
</g>
<g opacity="0.35">
<path opacity="0.35" d="M57.3323 4.25354L62.6796 15.6751L49.5918 8.17208" fill="white"/>
<path opacity="0.35" d="M62.8414 15.8551L49.5601 8.24075L49.6231 8.10309L62.5171 15.4953L57.2707 4.28942L57.3932 4.21765L62.8414 15.8551Z" fill="#650000"/>
</g>
<g opacity="0.2">
<path opacity="0.2" d="M69.0902 12.658V17.7359L64.0146 20.2989L60.3033 22.1751H60.3019L55.0826 24.8108L53.9312 25.3924V19.9787L55.0826 19.4219L65.8336 14.2295L67.2849 13.5288L69.0902 12.658Z" fill="#650000"/>
</g>
<g opacity="0.2">
<path opacity="0.2" d="M69.0903 17.736L40.004 50.1961L39.6943 50.5426L39.9528 50.0863L53.9313 25.3924L60.3021 22.1751H60.3034L64.0147 20.3005L69.0903 17.736Z" fill="#650000"/>
</g>
<g opacity="0.6">
<path opacity="0.6" d="M62.6792 15.6757L49.5908 8.17244L50.763 7.57849L61.8692 13.9449L62.6792 15.6757Z" fill="white"/>
</g>
<g opacity="0.35">
<path opacity="0.35" d="M49.5905 8.17249L39.8319 19.9788L29.7969 8.17249H49.5905Z" fill="white"/>
<path opacity="0.35" d="M39.8322 20.0917L39.7814 20.032L29.6357 8.09509H49.7486L39.8322 20.0917ZM29.9575 8.24977L39.8322 19.8659L49.4335 8.24977H29.9575Z" fill="#650000"/>
</g>
<g opacity="0.6">
<path opacity="0.6" d="M50.5033 8.74011L40.7447 20.5465L40.0439 19.722L49.1225 8.74011H50.5033Z" fill="white"/>
</g>
<g opacity="0.6">
<path opacity="0.6" d="M40.6065 19.0415L39.8324 19.9788L29.7974 8.17249H31.3676L40.6065 19.0415Z" fill="white"/>
</g>
<g opacity="0.5">
<path opacity="0.5" d="M29.7969 8.1724L16.7085 15.6757L22.0564 4.25293L29.7969 8.1724Z" fill="white"/>
<path opacity="0.5" d="M16.5464 15.8554L22.0256 4.15234L29.9563 8.16802L29.8286 8.24133L16.5464 15.8554ZM22.0875 4.35342L16.8709 15.4956L29.6378 8.17668L22.0875 4.35342Z" fill="#650000"/>
</g>
<path d="M49.5908 8.71316H29.7972C29.7284 8.71317 29.6605 8.69683 29.5978 8.66521L21.8573 4.74667C21.7702 4.70261 21.6967 4.63064 21.6461 4.53985C21.5955 4.44907 21.57 4.34354 21.573 4.23659C21.5759 4.12964 21.6072 4.02607 21.6627 3.93896C21.7182 3.85185 21.7956 3.78511 21.885 3.74716L30.6389 0.0349568C30.6938 0.0118167 30.752 -2.62689e-05 30.8106 4.37496e-08H48.5779C48.6345 0.00012394 48.6906 0.0113247 48.7438 0.0330989L57.7742 3.7453C57.8648 3.78249 57.9435 3.84917 58 3.93679C58.0565 4.0244 58.0883 4.12893 58.0912 4.23692C58.0942 4.34492 58.0682 4.45144 58.0167 4.54278C57.9651 4.63412 57.8903 4.70609 57.8018 4.74945L49.7848 8.66799C49.7237 8.69793 49.6576 8.7133 49.5908 8.71316ZM29.9003 7.63043H49.4899L56.3104 4.29687L48.4911 1.08273H30.8988L23.317 4.29749L29.9003 7.63043Z" fill="#650000"/>
<g opacity="0.25">
<path opacity="0.25" d="M46.0182 39.3704L44.1522 42.6666L30.0949 33.584L26.0781 26.4875L46.0182 39.3704Z" fill="white"/>
</g>
<g opacity="0.25">
<path opacity="0.25" d="M48.0446 35.7928L47.1296 37.4092L28.5288 25.3925H31.9457L48.0446 35.7928Z" fill="white"/>
</g>
<g opacity="0.6">
<path opacity="0.6" d="M12.1422 13.4282V18.5418L10.5747 17.7359V12.658L12.1422 13.4282Z" fill="white"/>
</g>
<g opacity="0.6">
<path opacity="0.6" d="M55.0826 19.4235V24.8108L53.9312 25.3924V19.9787L55.0826 19.4235Z" fill="white"/>
</g>
<path d="M53.931 20.5201C53.835 20.5202 53.7412 20.4883 53.6615 20.4285C53.5818 20.3688 53.5198 20.2838 53.4834 20.1845L49.1432 8.37752C49.1187 8.3117 49.106 8.24111 49.106 8.1698C49.1059 8.09849 49.1184 8.02788 49.1428 7.96201C49.1672 7.89613 49.203 7.83631 49.2481 7.78596C49.2933 7.73561 49.3468 7.69573 49.4058 7.66861C49.4647 7.64149 49.5278 7.62767 49.5916 7.62794C49.6553 7.62821 49.7183 7.64256 49.7771 7.67017C49.8358 7.69779 49.8891 7.73811 49.9339 7.78884C49.9787 7.83957 50.0141 7.8997 50.038 7.96578L54.1905 19.2632L68.0704 12.5596L57.342 4.70646C57.2346 4.62766 57.1595 4.50432 57.1333 4.36357C57.1072 4.22283 57.132 4.07622 57.2024 3.95598C57.2729 3.83574 57.3831 3.75173 57.5089 3.72244C57.6346 3.69314 57.7657 3.72095 57.8731 3.79976L69.3542 12.2039C69.4274 12.2574 69.4862 12.3321 69.5244 12.42C69.5627 12.508 69.5789 12.6059 69.5714 12.7033C69.5639 12.8007 69.533 12.8941 69.4819 12.9734C69.4308 13.0527 69.3615 13.1151 69.2813 13.1539L54.1245 20.4759C54.0634 20.5053 53.9975 20.5204 53.931 20.5201Z" fill="#650000"/>
<g opacity="0.6">
<path opacity="0.6" d="M30.8104 9.36464L26.7931 19.9788V25.3924H27.4613L40.0037 50.1961L25.457 25.3924L25.7335 19.5147L30.0596 8.48145L30.8104 9.36464Z" fill="white"/>
</g>
<path d="M39.6942 51.0843C39.6306 51.0841 39.5677 51.07 39.509 51.0426C39.4503 51.0152 39.397 50.9751 39.3522 50.9247L10.2318 18.1174C10.1858 18.0673 10.1492 18.0074 10.124 17.9413C10.0989 17.8752 10.0858 17.8041 10.0855 17.7322C10.0851 17.6604 10.0976 17.5891 10.1221 17.5227C10.1467 17.4563 10.1828 17.396 10.2283 17.3454C10.2739 17.2947 10.328 17.2547 10.3875 17.2277C10.4471 17.2008 10.5108 17.1873 10.575 17.1881C10.6392 17.189 10.7027 17.2042 10.7616 17.2327C10.8205 17.2613 10.8738 17.3027 10.9182 17.3546L39.6964 49.7767L68.7488 17.3527C68.8401 17.2543 68.9624 17.1999 69.0893 17.2013C69.2161 17.2027 69.3374 17.2599 69.427 17.3604C69.5165 17.4609 69.5672 17.5968 69.5682 17.7387C69.5691 17.8807 69.5201 18.0173 69.4319 18.1193L40.0361 50.9262C39.9912 50.9764 39.9379 51.0162 39.8792 51.0433C39.8205 51.0704 39.7577 51.0844 39.6942 51.0843Z" fill="#650000"/>
<path d="M39.8324 20.3654C39.7856 20.3655 39.7392 20.3548 39.6961 20.3341C39.6531 20.3134 39.6142 20.2831 39.582 20.2451L29.7244 8.64786L16.8666 16.0191C16.8013 16.0567 16.727 16.07 16.6545 16.0571C16.582 16.0443 16.515 16.0059 16.4633 15.9475C16.4116 15.8892 16.3779 15.8139 16.3671 15.7326C16.3562 15.6514 16.3688 15.5684 16.403 15.4956L21.7503 4.07412C21.7708 4.02807 21.7993 3.98707 21.8341 3.9535C21.869 3.91994 21.9095 3.89449 21.9532 3.87865C21.9969 3.86281 22.0431 3.8569 22.0889 3.86125C22.1347 3.86561 22.1793 3.88016 22.22 3.90403C22.2607 3.92791 22.2968 3.96063 22.326 4.0003C22.3553 4.03996 22.3772 4.08577 22.3905 4.13502C22.4037 4.18428 22.4081 4.236 22.4032 4.28716C22.3984 4.33833 22.3845 4.38789 22.3624 4.43297L17.5204 14.7755L29.6393 7.82778C29.7057 7.78965 29.7813 7.77661 29.8548 7.7906C29.9284 7.8046 29.9959 7.84488 30.0473 7.90542L39.8288 19.4133L49.3386 7.90914C49.4009 7.83382 49.4874 7.78929 49.5791 7.78535C49.6708 7.7814 49.7601 7.81836 49.8274 7.8881C49.8947 7.95784 49.9345 8.05464 49.938 8.15721C49.9415 8.25978 49.9085 8.35971 49.8462 8.43503L40.0876 20.242C40.0554 20.2807 40.0165 20.3116 39.9733 20.3328C39.9301 20.3541 39.8835 20.3653 39.8363 20.3657L39.8324 20.3654Z" fill="#650000"/>
<path d="M62.6795 16.0617C62.6247 16.0618 62.5707 16.0471 62.5219 16.0191L49.4341 8.51608C49.3525 8.46931 49.2909 8.3882 49.2628 8.29059C49.2346 8.19299 49.2423 8.08687 49.2841 7.9956C49.3259 7.90432 49.3984 7.83537 49.4856 7.80389C49.5728 7.77242 49.6677 7.78101 49.7492 7.82777L61.8681 14.7755L57.0275 4.43297C57.0054 4.38789 56.9915 4.33832 56.9866 4.28716C56.9818 4.236 56.9862 4.18428 56.9994 4.13502C57.0127 4.08576 57.0346 4.03996 57.0639 4.0003C57.0931 3.96063 57.1292 3.92791 57.1699 3.90403C57.2106 3.88016 57.2552 3.86561 57.301 3.86125C57.3468 3.8569 57.3929 3.86281 57.4367 3.87865C57.4804 3.89449 57.5209 3.91994 57.5557 3.9535C57.5906 3.98707 57.6191 4.02807 57.6396 4.07412L62.9869 15.4956C63.0145 15.5546 63.028 15.6205 63.0262 15.687C63.0244 15.7534 63.0072 15.8183 62.9765 15.8752C62.9457 15.9321 62.9023 15.9792 62.8506 16.0119C62.7988 16.0446 62.7403 16.0617 62.6809 16.0617H62.6795Z" fill="#650000"/>
<path d="M39.6939 51.0842C39.6124 51.0842 39.5322 51.0611 39.4608 51.0172C39.3894 50.9732 39.329 50.9097 39.2854 50.8327L25.0483 25.6825C24.9992 25.596 24.9731 25.4955 24.9731 25.393V19.9787C24.9732 19.8352 25.0242 19.6975 25.1149 19.596C25.2056 19.4945 25.3286 19.4375 25.4569 19.4374H53.931C54.0593 19.4375 54.1823 19.4945 54.273 19.596C54.3637 19.6975 54.4147 19.8352 54.4147 19.9787V25.3924C54.4148 25.4949 54.3887 25.5954 54.3396 25.6819L40.1025 50.8321C40.0589 50.9092 39.9986 50.9728 39.9272 51.0168C39.8557 51.0609 39.7755 51.0841 39.6939 51.0842ZM25.9407 25.2352L39.6939 49.5313L53.4469 25.2352V20.5201H25.9404L25.9407 25.2352Z" fill="#650000"/>
<path d="M53.9311 25.9338H25.4571C25.3873 25.9338 25.3184 25.9169 25.255 25.8843L10.373 18.2279C10.2889 18.1847 10.2177 18.1154 10.1677 18.0282C10.1178 17.941 10.0913 17.8396 10.0913 17.7361V12.6575C10.0913 12.5139 10.1423 12.3762 10.233 12.2747C10.3237 12.1731 10.4468 12.1161 10.5751 12.1161C10.7034 12.1161 10.8265 12.1731 10.9172 12.2747C11.0079 12.3762 11.0589 12.5139 11.0589 12.6575V17.3905L25.5629 24.8527H53.8269L68.6058 17.388V12.6575C68.6058 12.5139 68.6567 12.3762 68.7474 12.2747C68.8382 12.1731 68.9612 12.1161 69.0895 12.1161C69.2178 12.1161 69.3409 12.1731 69.4316 12.2747C69.5223 12.3762 69.5733 12.5139 69.5733 12.6575V17.7361C69.5736 17.8405 69.5468 17.9428 69.4963 18.0306C69.4458 18.1185 69.3736 18.188 69.2886 18.231L54.1302 25.8874C54.0675 25.9185 53.9996 25.9343 53.9311 25.9338Z" fill="#650000"/>
<path d="M25.4575 20.5201C25.3909 20.52 25.325 20.5044 25.264 20.4743L10.3806 13.153C10.3009 13.1137 10.2322 13.051 10.1816 12.9717C10.1311 12.8923 10.1006 12.7991 10.0934 12.702C10.0863 12.6049 10.1027 12.5074 10.1409 12.4198C10.1792 12.3322 10.2378 12.2578 10.3107 12.2045L21.7918 3.79975C21.8992 3.72115 22.0301 3.6935 22.1557 3.72289C22.2813 3.75227 22.3913 3.83628 22.4615 3.95643C22.5317 4.07659 22.5565 4.22304 22.5302 4.36358C22.5039 4.50412 22.4289 4.62724 22.3215 4.70584L11.587 12.5633L25.1985 19.2595L29.3499 7.96546C29.373 7.8981 29.4079 7.83659 29.4526 7.78455C29.4973 7.73251 29.5508 7.69099 29.61 7.66243C29.6692 7.63387 29.733 7.61884 29.7974 7.61824C29.8619 7.61764 29.9259 7.63147 29.9855 7.65892C30.0452 7.68637 30.0993 7.72688 30.1447 7.77808C30.1902 7.82928 30.226 7.89013 30.2501 7.95705C30.2743 8.02397 30.2862 8.09561 30.2852 8.16777C30.2842 8.23992 30.2704 8.31113 30.2445 8.3772L25.9042 20.1839C25.8679 20.2831 25.8061 20.3681 25.7265 20.428C25.647 20.4878 25.5534 20.5199 25.4575 20.5201Z" fill="#650000"/>
<g opacity="0.3">
<path opacity="0.3" d="M69.0903 12.658V17.736L40.004 50.1961L39.6943 50.5425L39.9528 50.0863L64.0148 20.2989L64.482 19.7204L67.2851 18.381V13.5288L57.6081 4.84224L58.2578 4.72778L69.0903 12.658Z" fill="#650000"/>
</g>
<g opacity="0.2">
<path opacity="0.2" d="M69.0901 12.658L67.2849 13.5303L65.8335 14.231L53.9311 19.9787L49.5923 8.17239L57.5609 4.27613L57.6079 4.25293L58.2575 4.72778L69.0901 12.658Z" fill="#650000"/>
</g>
</g>
<defs>
<clipPath id="clip0">
<rect width="79" height="67" fill="white"/>
</clipPath>
</defs>
</svg>
