<svg width="328" height="99" viewBox="0 0 328 99" fill="none" xmlns="http://www.w3.org/2000/svg">
<path d="M249.308 20.7524C248.675 21.4703 248.121 22.2547 247.657 23.092C248.071 22.3317 248.562 21.6155 249.121 20.9542C249.179 20.887 249.235 20.8197 249.293 20.7554L249.308 20.7524Z" fill="#00E0B7"/>
<path d="M246.085 32.1876C246.081 32.2421 246.081 32.2968 246.085 32.3513C246.126 32.6898 246.29 33.0017 246.545 33.2287C246.95 33.6183 247.434 33.9174 247.964 34.106C249.269 34.57 250.628 34.8648 252.007 34.9834C253.855 35.1729 255.712 35.2579 257.569 35.2378C258.044 35.2378 258.518 35.191 258.992 35.191C259.229 35.191 259.338 35.1121 259.367 34.9278C259.362 34.847 259.362 34.7659 259.367 34.6851C259.382 33.8516 259.367 33.021 259.396 32.1846C259.396 32.945 259.396 33.7054 259.396 34.4657C259.396 35.0887 259.343 35.036 259.982 35.0506C266.516 35.077 273.053 35.0506 279.596 35.0916C285.19 35.1355 290.791 35.0916 296.388 35.0916C296.486 35.0977 296.584 35.0919 296.681 35.074H296.71H296.733C296.741 35.0698 296.747 35.0637 296.751 35.0565C296.762 35.0474 296.77 35.0351 296.774 35.0214C296.787 34.9948 296.794 34.966 296.795 34.9366C296.8 34.8558 296.8 34.7747 296.795 34.6939C296.777 33.7785 296.795 32.8631 296.763 31.9477C296.763 31.4418 296.742 30.9359 296.733 30.4299C296.733 30.0995 296.733 29.7719 296.733 29.4414V28.608C296.733 28.4559 296.733 28.3155 296.733 28.1547V27.3972C296.733 27.1428 296.733 26.8883 296.733 26.6368C296.733 26.3853 296.733 26.1309 296.733 25.8794C297.252 26.6983 298.027 27.1311 298.862 27.4849C300.325 28.1079 301.883 28.4354 303.423 28.8098C305.077 29.2104 306.748 29.5584 308.306 30.272C308.897 30.5104 309.415 30.8997 309.808 31.4009C309.982 31.6234 310.095 31.8875 310.135 32.1671V32.3396C310.135 44.4705 310.135 56.6023 310.135 68.7351C309.754 71.7243 308.371 74.4962 306.21 76.5989C304.049 78.7015 301.239 80.0108 298.238 80.3132C284.836 80.3132 271.433 80.3132 258.029 80.3132C254.903 80.0148 251.982 78.6239 249.782 76.3856C247.581 74.1472 246.242 71.205 246 68.0771V68.0771" fill="#5CD5C4"/>
<path fill-rule="evenodd" clip-rule="evenodd" d="M306.839 20.7378C306.23 20.8752 305.616 20.9893 305.004 21.1063C303.268 21.395 301.552 21.7915 299.866 22.2936C299.093 22.5156 298.36 22.8602 297.697 23.3143C297.369 23.5211 297.099 23.8091 296.915 24.1503C296.731 24.4915 296.638 24.8744 296.646 25.262V25.8761C296.646 26.1276 296.646 26.3821 296.646 26.6336C296.646 26.8851 296.646 27.1395 296.646 27.3939V28.1514C296.646 28.3035 296.646 28.4438 296.646 28.6047V29.4382C296.646 29.7686 296.646 30.0962 296.646 30.4267C296.646 30.9326 296.663 31.4385 296.675 31.9445C296.696 32.8599 296.675 33.7752 296.707 34.6906C296.712 34.7714 296.712 34.8525 296.707 34.9333C296.706 34.9627 296.699 34.9916 296.687 35.0181C296.683 35.0319 296.674 35.0441 296.663 35.0532C296.659 35.0605 296.653 35.0665 296.646 35.0708H296.622H296.593C296.497 35.0886 296.398 35.0945 296.3 35.0883C290.703 35.0883 285.103 35.1176 279.508 35.0883C272.974 35.0357 266.437 35.0883 259.894 35.0474C259.271 35.0474 259.309 35.0971 259.309 34.4625C259.309 33.7021 259.309 32.9417 259.309 32.1814C259.309 30.102 259.309 28.0256 259.338 25.9463V25.8732C259.373 24.1741 258.948 23.4693 257.133 22.6562C256.594 22.4196 256.039 22.2184 255.474 22.0538L255.231 21.9865C255.017 21.9251 254.8 21.8696 254.584 21.8169C254.475 21.7877 254.364 21.7643 254.256 21.7379C253.495 21.5625 252.722 21.4192 251.955 21.2671C251.495 21.1735 251.033 21.0887 250.57 21.001C250.339 20.9571 250.11 20.9132 249.879 20.8635C249.648 20.8138 249.434 20.7729 249.212 20.7231H249.194C251.405 18.2277 254.474 16.6536 257.792 16.313H298.312C301.607 16.6735 304.649 18.2517 306.839 20.7378V20.7378Z" fill="#37A596"/>
<path d="M310.068 27.8443V32.1697C310.028 31.8901 309.914 31.626 309.74 31.4035C309.347 30.9023 308.829 30.513 308.239 30.2746C306.681 29.5552 305.018 29.2072 303.355 28.8124C301.816 28.438 300.264 28.1105 298.794 27.4876C297.96 27.1337 297.184 26.7009 296.666 25.882V25.2679C296.657 24.8817 296.748 24.4997 296.929 24.1586C297.111 23.8175 297.377 23.5287 297.702 23.3201C298.364 22.8646 299.094 22.518 299.866 22.2936C301.553 21.7914 303.27 21.3949 305.007 21.1063C305.618 20.9893 306.233 20.8752 306.842 20.7378C308.606 22.7305 309.729 25.2062 310.068 27.8443V27.8443Z" fill="#5CD5C4"/>
<path d="M259.435 25.8908V25.9639C258.919 26.733 258.167 27.1337 257.359 27.4905C255.895 28.1105 254.338 28.441 252.798 28.8153C251.144 29.216 249.472 29.564 247.915 30.2775C247.324 30.5171 246.806 30.9074 246.413 31.4093C246.239 31.632 246.126 31.896 246.085 32.1756V28.441C246.23 26.5709 246.762 24.7514 247.648 23.0979V23.0833C248.112 22.2459 248.666 21.4615 249.3 20.7437C249.522 20.7934 249.745 20.8431 249.967 20.884C250.19 20.925 250.427 20.9776 250.658 21.0215C251.12 21.1092 251.583 21.194 252.043 21.2876C252.81 21.4397 253.583 21.5801 254.344 21.7585C254.452 21.7848 254.563 21.8082 254.672 21.8374C254.888 21.8901 255.105 21.9456 255.319 22.007L255.561 22.0743C256.127 22.2389 256.682 22.4401 257.221 22.6768C259.045 23.4868 259.467 24.1916 259.435 25.8908Z" fill="#5CD5C4"/>
<path d="M259.376 34.6992C259.371 34.78 259.371 34.8611 259.376 34.9419C259.346 35.1262 259.238 35.2051 259.001 35.2051C258.527 35.2051 258.052 35.2519 257.578 35.2519C255.721 35.272 253.864 35.187 252.016 34.9975C250.636 34.8789 249.278 34.5841 247.973 34.1201C247.443 33.9314 246.959 33.6324 246.553 33.2428C246.298 33.0158 246.135 32.7039 246.094 32.3654C246.089 32.3109 246.089 32.2562 246.094 32.2017C246.135 31.9232 246.248 31.6601 246.422 31.4384C246.814 30.9364 247.332 30.5462 247.923 30.3066C249.481 29.5901 251.144 29.242 252.806 28.8443C254.346 28.47 255.901 28.1395 257.367 27.5195C258.175 27.1773 258.928 26.7621 259.443 25.9929C259.402 28.0722 259.411 30.1486 259.414 32.228C259.387 33.0351 259.39 33.8598 259.376 34.6992Z" fill="#D6FFF7"/>
<path fill-rule="evenodd" clip-rule="evenodd" d="M310.068 32.3423C310.027 32.681 309.864 32.993 309.609 33.2196C309.203 33.6093 308.719 33.9083 308.189 34.097C306.884 34.5609 305.526 34.8558 304.146 34.9743C302.298 35.164 300.441 35.249 298.584 35.2288C298.11 35.2288 297.635 35.182 297.161 35.182C296.921 35.182 296.813 35.103 296.783 34.9188C296.788 34.8379 296.788 34.7569 296.783 34.676C296.766 33.7607 296.783 32.8453 296.751 31.9299C296.751 31.424 296.731 30.918 296.722 30.4121C296.722 30.0816 296.722 29.7541 296.722 29.4236V28.5901C296.722 28.4381 296.722 28.2977 296.722 28.1368V27.3794C296.722 27.125 296.722 26.8705 296.722 26.619C296.722 26.3675 296.722 26.1131 296.722 25.8616C297.24 26.6804 298.016 27.1133 298.85 27.4671C300.314 28.09 301.871 28.4176 303.411 28.7919C305.065 29.1926 306.737 29.5406 308.294 30.2542C308.885 30.4926 309.403 30.8819 309.796 31.383C309.97 31.6056 310.083 31.8697 310.124 32.1493V32.1493C310.112 32.2153 310.093 32.2799 310.068 32.3423V32.3423Z" fill="#D6FFF7"/>
<path d="M292.992 58.1745C291.562 59.822 289.81 61.1596 287.843 62.105C285.066 63.4432 282.044 64.1987 278.964 64.3247C278.773 64.3247 278.586 64.3452 278.399 64.3598L278.065 64.3832H278.027C275.103 64.3472 272.222 63.6829 269.578 62.4355C267.508 61.4815 265.606 60.1974 263.948 58.6336L263.896 58.581C263.521 58.2829 263.267 57.8589 263.181 57.3878C263.123 57.0114 263.185 56.6263 263.359 56.2874C263.533 55.9486 263.81 55.6735 264.15 55.5015C264.525 55.3138 264.949 55.2492 265.362 55.317C265.776 55.3847 266.157 55.5813 266.451 55.8787C268.354 57.929 270.765 59.442 273.439 60.2655C275.177 60.8266 277.009 61.0384 278.829 60.8884C280.517 60.7826 282.186 60.4833 283.806 59.9964C285.886 59.32 287.787 58.1845 289.368 56.6742L289.546 56.5104C289.831 56.2337 290.13 55.9721 290.442 55.7266C290.632 55.5767 290.85 55.4661 291.083 55.4014C291.317 55.3366 291.56 55.3189 291.801 55.3494C292.05 55.3846 292.289 55.4689 292.505 55.5974C292.721 55.726 292.91 55.8961 293.059 56.0981C293.304 56.3927 293.432 56.7665 293.42 57.149C293.407 57.5315 293.255 57.8962 292.992 58.1745Z" fill="white"/>
<path d="M269.08 48.9682C268.914 49.0815 268.717 49.1421 268.515 49.1421C268.314 49.1421 268.117 49.0815 267.95 48.9682L267.415 48.6758C267.096 48.5091 266.776 48.3424 266.46 48.1728C265.248 47.5264 264.007 47.5235 262.655 48.1728C261.826 48.5734 261.156 48.9127 260.544 49.249C260.436 49.3104 260.324 49.366 260.213 49.4215C260.044 49.5112 259.857 49.5602 259.666 49.5648C259.453 49.5636 259.247 49.4916 259.08 49.3601C258.92 49.2281 258.806 49.0491 258.753 48.8487C258.701 48.6482 258.713 48.4363 258.787 48.2429C259.006 47.4408 259.388 46.6922 259.909 46.0437C261.062 44.5815 262.543 43.7831 264.203 43.7041H264.23C265.291 43.7021 266.329 44.0174 267.21 44.6095C268.09 45.2015 268.773 46.0432 269.171 47.0264C269.272 47.2707 269.359 47.5207 269.432 47.775C269.52 47.9838 269.534 48.2169 269.47 48.4345C269.406 48.6521 269.268 48.8407 269.08 48.9682Z" fill="white"/>
<path d="M296.877 48.9684C296.716 49.0989 296.518 49.1756 296.311 49.1876C296.104 49.1997 295.898 49.1465 295.723 49.0356C295.202 48.7432 294.678 48.4741 294.157 48.1992C293.594 47.8995 292.966 47.7421 292.328 47.7405C291.691 47.739 291.062 47.8935 290.498 48.1904C289.78 48.5238 289.066 48.9011 288.372 49.2667L288.024 49.4509C287.837 49.5593 287.626 49.6205 287.409 49.6293C287.187 49.629 286.972 49.5468 286.806 49.3983C286.641 49.258 286.527 49.0678 286.48 48.8566C286.434 48.6454 286.458 48.4248 286.548 48.2285C287.359 45.804 288.958 44.333 291.3 43.8417C291.486 43.8079 291.675 43.7884 291.865 43.7832H292.064H292.119C293.309 43.8082 294.456 44.2309 295.377 44.9837C296.297 45.7365 296.939 46.776 297.199 47.936C297.252 48.1207 297.25 48.3169 297.193 48.5004C297.135 48.6839 297.026 48.8466 296.877 48.9684Z" fill="white"/>
<path d="M31.5101 50.918V55H21.9681C20.1134 55 18.6661 54.844 17.6261 54.532C16.5861 54.22 15.7974 53.5787 15.2601 52.608C14.7227 51.62 14.4541 50.138 14.4541 48.162C14.4541 46.3247 14.7054 44.9553 15.2081 44.054C15.7107 43.1353 16.5081 42.52 17.6001 42.208C18.6921 41.896 20.2781 41.74 22.3581 41.74C23.5194 41.74 24.7934 41.7833 26.1801 41.87C27.5667 41.9393 28.4941 42.0173 28.9621 42.104V50.918H31.5101ZM18.9261 48.188C18.9261 49.02 19.0387 49.6353 19.2641 50.034C19.5067 50.4153 19.8361 50.658 20.2521 50.762C20.6681 50.866 21.2661 50.918 22.0461 50.918H24.4901V45.9C23.3981 45.848 22.6701 45.822 22.3061 45.822C21.3874 45.822 20.7027 45.874 20.2521 45.978C19.8014 46.0647 19.4634 46.2813 19.2381 46.628C19.0301 46.9573 18.9261 47.4773 18.9261 48.188ZM18.5621 35.63H21.7081V39.582H18.5621V35.63ZM22.9821 35.63H26.1281V39.582H22.9821V35.63ZM41.5276 50.918V55H31.5176V50.918H34.7156V37.112H39.1876V50.918H41.5276ZM62.3735 41.948C62.8068 45.1893 63.0235 47.1307 63.0235 47.772V55H57.3295C56.7055 55 56.0988 54.896 55.5095 54.688C54.9375 54.48 54.5388 54.298 54.3135 54.142C53.5508 54.714 52.6668 55 51.6615 55H41.5215V50.918H45.3435V43.3H49.8155V50.918H50.1015C50.6735 50.918 51.1328 50.71 51.4795 50.294C51.8262 49.878 51.9995 49.3147 51.9995 48.604V43.3H56.4715V48.604C56.4715 49.2973 56.4022 49.9907 56.2635 50.684C56.5062 50.84 56.7922 50.918 57.1215 50.918H58.5515V48.734L58.5775 47.33C58.5948 47.07 58.6035 46.6713 58.6035 46.134C58.6035 45.2153 58.5342 43.8807 58.3955 42.13L62.3735 41.948ZM91.7167 42V55H79.4447C77.9714 55 76.6974 54.9047 75.6227 54.714C74.5481 54.5233 73.5947 54.0293 72.7627 53.232C71.9481 52.4173 71.5407 51.1607 71.5407 49.462C71.5407 48.6993 71.6187 47.8847 71.7747 47.018C71.9481 46.134 72.1387 45.3713 72.3467 44.73L75.9867 44.938C76.0041 44.7473 75.9434 45.276 75.8047 46.524C75.6834 47.5467 75.6227 48.1793 75.6227 48.422C75.6227 49.0287 75.8394 49.6007 76.2727 50.138C76.7234 50.658 77.5554 50.918 78.7687 50.918H87.2447V42H91.7167ZM77.9107 38.048H81.0567V42H77.9107V38.048ZM82.3307 38.048H85.4767V42H82.3307V38.048ZM102.34 50.918V55H95.2418V37.112H99.7138V50.918H102.34ZM112.654 41.792C114.717 41.792 116.242 42.078 117.23 42.65C118.218 43.222 118.842 43.9587 119.102 44.86C119.362 45.7613 119.492 46.9747 119.492 48.5V55H102.332V50.918H106.206C105.981 49.9473 105.868 49.124 105.868 48.448C105.868 47.6333 105.981 46.6887 106.206 45.614C106.449 44.5393 106.709 43.586 106.986 42.754C107.471 42.5113 108.217 42.2947 109.222 42.104C110.227 41.896 111.371 41.792 112.654 41.792ZM110.158 48.448C110.158 48.8813 110.193 49.3233 110.262 49.774C110.349 50.2247 110.435 50.606 110.522 50.918H115.02V48.396C115.02 47.7893 114.977 47.3213 114.89 46.992C114.821 46.6627 114.587 46.3853 114.188 46.16C113.789 45.9173 113.157 45.796 112.29 45.796C111.631 45.796 111.007 45.8653 110.418 46.004C110.245 46.9573 110.158 47.772 110.158 48.448ZM137.305 50.918V55H121.679V50.918H129.947C129.895 49.0287 129.496 47.6593 128.751 46.81C128.005 45.9607 127.121 45.536 126.099 45.536H123.109L122.771 41.974C124.729 41.5753 126.22 41.376 127.243 41.376C128.751 41.376 130.042 41.7573 131.117 42.52C132.191 43.2827 133.006 44.3747 133.561 45.796C134.133 47.2173 134.419 48.8987 134.419 50.84V50.918H137.305ZM146.187 41.74C147.487 41.74 148.492 41.9047 149.203 42.234C149.931 42.5633 150.434 43.0313 150.711 43.638C150.988 44.2273 151.136 44.99 151.153 45.926V55H137.295V50.918H146.681V47.46C146.681 46.7667 146.568 46.264 146.343 45.952C146.118 45.64 145.65 45.484 144.939 45.484C144.662 45.5013 144.116 45.51 143.301 45.51H140.779H139.349L139.245 42.624C140.129 42.364 141.256 42.156 142.625 42C143.994 41.8267 145.182 41.74 146.187 41.74ZM143.561 35.396H147.591V39.582H143.561V35.396ZM180 42V55H167.728C166.255 55 164.981 54.9047 163.906 54.714C162.831 54.5233 161.878 54.0293 161.046 53.232C160.231 52.4173 159.824 51.1607 159.824 49.462C159.824 48.6993 159.902 47.8847 160.058 47.018C160.231 46.134 160.422 45.3713 160.63 44.73L164.27 44.938C164.287 44.7473 164.227 45.276 164.088 46.524C163.967 47.5467 163.906 48.1793 163.906 48.422C163.906 49.0287 164.123 49.6007 164.556 50.138C165.007 50.658 165.839 50.918 167.052 50.918H175.528V42H180ZM166.194 38.048H169.34V42H166.194V38.048ZM170.614 38.048H173.76V42H170.614V38.048ZM190.623 50.918V55H183.525V37.112H187.997V50.918H190.623ZM190.615 50.918H193.735C193.77 50.9527 193.735 50.632 193.631 49.956C193.527 49.2627 193.475 48.5433 193.475 47.798C193.475 46.29 193.761 45.12 194.333 44.288C194.905 43.456 195.746 42.8753 196.855 42.546C197.982 42.2167 199.447 42.052 201.249 42.052C202.913 42.052 204.153 42.104 204.967 42.208L206.735 42.416V55H190.615V50.918ZM202.263 50.918V46.082C201.535 46.0473 201.076 46.03 200.885 46.03C200.036 46.03 199.421 46.0907 199.039 46.212C198.675 46.3333 198.415 46.5933 198.259 46.992C198.121 47.3733 198.051 48.0147 198.051 48.916C198.051 49.6267 198.077 50.112 198.129 50.372C198.181 50.6147 198.216 50.7967 198.233 50.918H202.263ZM196.569 35.63H199.715V39.582H196.569V35.63ZM200.989 35.63H204.135V39.582H200.989V35.63ZM217.029 50.918V55H209.931V37.112H214.403V50.918H217.029ZM225.367 42V55H217.021V50.918H220.895V42H225.367ZM221.207 57.08H225.237V61.266H221.207V57.08Z" fill="black"/>
</svg>
