<svg width="450" height="65" viewBox="0 0 450 65" fill="none" xmlns="http://www.w3.org/2000/svg">
<path d="M13.756 15.464C17.468 15.464 20.6467 16.4027 23.292 18.28C25.9373 20.1573 27.9427 22.8453 29.308 26.344C30.716 29.8427 31.42 33.9813 31.42 38.76V49H0.0600002V38.952H20.412C20.284 34.3013 19.3027 30.9307 17.468 28.84C15.6333 26.7493 13.4573 25.704 10.94 25.704H3.58L2.748 16.936C7.56933 15.9547 11.2387 15.464 13.756 15.464ZM39.668 64.808C38.7293 64.808 37.1933 64.744 35.06 64.616V54.696L36.02 54.76C38.324 54.76 39.476 53.0107 39.476 49.512V16.936H50.484V47.912C50.484 53.1173 49.588 57.2347 47.796 60.264C46.004 63.2933 43.2947 64.808 39.668 64.808ZM40.052 0.743999H49.972V11.048H40.052V0.743999ZM120.995 17V49H90.787C87.1603 49 84.0243 48.7653 81.379 48.296C78.7337 47.8267 76.387 46.6107 74.339 44.648C72.3337 42.6427 71.331 39.5493 71.331 35.368C71.331 33.4907 71.523 31.4853 71.907 29.352C72.3337 27.176 72.803 25.2987 73.315 23.72L82.275 24.232C82.3177 23.7627 82.1683 25.064 81.827 28.136C81.5283 30.6533 81.379 32.2107 81.379 32.808C81.379 34.3013 81.9123 35.7093 82.979 37.032C84.0883 38.312 86.1363 38.952 89.123 38.952H109.987V17H120.995ZM87.011 7.272H94.755V17H87.011V7.272ZM97.891 7.272H105.635V17H97.891V7.272ZM147.144 38.952V49H129.672V4.968H140.68V38.952H147.144ZM172.533 16.488C177.61 16.488 181.365 17.192 183.797 18.6C186.229 20.008 187.765 21.8213 188.405 24.04C189.045 26.2587 189.365 29.2453 189.365 33V49H147.125V38.952H156.661C156.106 36.5627 155.829 34.536 155.829 32.872C155.829 30.8667 156.106 28.5413 156.661 25.896C157.258 23.2507 157.898 20.904 158.581 18.856C159.776 18.2587 161.61 17.7253 164.085 17.256C166.56 16.744 169.376 16.488 172.533 16.488ZM166.389 32.872C166.389 33.9387 166.474 35.0267 166.645 36.136C166.858 37.2453 167.072 38.184 167.285 38.952H178.357V32.744C178.357 31.2507 178.25 30.0987 178.037 29.288C177.866 28.4773 177.29 27.7947 176.309 27.24C175.328 26.6427 173.77 26.344 171.637 26.344C170.016 26.344 168.48 26.5147 167.029 26.856C166.602 29.2027 166.389 31.208 166.389 32.872ZM233.212 38.952V49H194.748V38.952H215.1C214.972 34.3013 213.99 30.9307 212.156 28.84C210.321 26.7493 208.145 25.704 205.628 25.704H198.268L197.436 16.936C202.257 15.9547 205.926 15.464 208.444 15.464C212.156 15.464 215.334 16.4027 217.98 18.28C220.625 20.1573 222.63 22.8453 223.996 26.344C225.404 29.8427 226.108 33.9813 226.108 38.76V38.952H233.212ZM255.076 16.36C258.276 16.36 260.75 16.7653 262.5 17.576C264.292 18.3867 265.529 19.5387 266.212 21.032C266.894 22.4827 267.257 24.36 267.3 26.664V49H233.188V38.952H256.292V30.44C256.292 28.7333 256.014 27.496 255.46 26.728C254.905 25.96 253.753 25.576 252.003 25.576C251.321 25.6187 249.977 25.64 247.972 25.64H241.764H238.244L237.988 18.536C240.164 17.896 242.937 17.384 246.308 17C249.678 16.5733 252.601 16.36 255.076 16.36ZM248.612 0.743999H258.532V11.048H248.612V0.743999ZM338.308 17V49H308.1C304.473 49 301.337 48.7653 298.692 48.296C296.046 47.8267 293.7 46.6107 291.652 44.648C289.646 42.6427 288.644 39.5493 288.644 35.368C288.644 33.4907 288.836 31.4853 289.22 29.352C289.646 27.176 290.116 25.2987 290.628 23.72L299.588 24.232C299.63 23.7627 299.481 25.064 299.14 28.136C298.841 30.6533 298.692 32.2107 298.692 32.808C298.692 34.3013 299.225 35.7093 300.292 37.032C301.401 38.312 303.449 38.952 306.436 38.952H327.3V17H338.308ZM304.324 7.272H312.068V17H304.324V7.272ZM315.204 7.272H322.948V17H315.204V7.272ZM364.457 38.952V49H346.985V4.968H357.993V38.952H364.457ZM364.438 38.952H372.118C372.203 39.0373 372.118 38.248 371.862 36.584C371.606 34.8773 371.478 33.1067 371.478 31.272C371.478 27.56 372.182 24.68 373.59 22.632C374.998 20.584 377.067 19.1547 379.798 18.344C382.571 17.5333 386.176 17.128 390.614 17.128C394.709 17.128 397.76 17.256 399.766 17.512L404.118 18.024V49H364.438V38.952ZM393.11 38.952V27.048C391.318 26.9627 390.187 26.92 389.718 26.92C387.627 26.92 386.112 27.0693 385.174 27.368C384.278 27.6667 383.638 28.3067 383.253 29.288C382.912 30.2267 382.742 31.8053 382.742 34.024C382.742 35.7733 382.806 36.968 382.934 37.608C383.062 38.2053 383.147 38.6533 383.19 38.952H393.11ZM379.094 1.32H386.838V11.048H379.094V1.32ZM389.974 1.32H397.718V11.048H389.974V1.32ZM429.457 38.952V49H411.985V4.968H422.993V38.952H429.457ZM449.982 17V49H429.438V38.952H438.974V17H449.982ZM439.742 54.12H449.662V64.424H439.742V54.12Z" fill="black"/>
</svg>
